<svg xmlns="http://www.w3.org/2000/svg" width="1080" height="1080"><rect width="1080" height="1080" fill="#071b2d"/><rect x="72" y="65" width="936" height="90" rx="12" fill="#f6c453"/><text x="112" y="122" font-family="Arial" font-size="32" font-weight="800" fill="#071b2d">CAPITAL IBERIA</text><text x="858" y="122" font-family="Arial" font-size="24" font-weight="700" fill="#071b2d">GUÍA 01 / 06</text><text x="72" y="285" font-family="Arial" font-size="88" font-weight="800" fill="white">CÓMO EMPEZAR</text><text x="72" y="345" font-family="Arial" font-size="32" fill="#c6d8e4">El recorrido dentro de la plataforma.</text><g font-family="Arial"><rect x="72" y="430" width="936" height="125" rx="12" fill="#10304a"/><circle cx="132" cy="493" r="31" fill="#f6c453"/><text x="132" y="504" text-anchor="middle" font-size="30" font-weight="800" fill="#071b2d">1</text><text x="190" y="484" font-size="32" font-weight="700" fill="white">Crea tu cuenta</text><text x="190" y="524" font-size="24" fill="#bdd0dc">Regístrate y accede a tu panel personal.</text><rect x="72" y="585" width="936" height="125" rx="12" fill="#10304a"/><circle cx="132" cy="648" r="31" fill="#66cfbd"/><text x="132" y="659" text-anchor="middle" font-size="30" font-weight="800" fill="#071b2d">2</text><text x="190" y="639" font-size="32" font-weight="700" fill="white">Consulta las operaciones</text><text x="190" y="679" font-size="24" fill="#bdd0dc">Revisa la información disponible antes de participar.</text><rect x="72" y="740" width="936" height="125" rx="12" fill="#10304a"/><circle cx="132" cy="803" r="31" fill="#f6c453"/><text x="132" y="814" text-anchor="middle" font-size="30" font-weight="800" fill="#071b2d">3</text><text x="190" y="794" font-size="32" font-weight="700" fill="white">Gestiona todo desde tu panel</text><text x="190" y="834" font-size="24" fill="#bdd0dc">Aportes, pagos, retiros, referidos y rangos.</text></g><text x="72" y="1015" font-family="Arial" font-size="22" letter-spacing="2" fill="#98b4c6">CAPITALIBERIA.COM · CRECE · CONECTA · AVANZA</text></svg>