<svg xmlns="http://www.w3.org/2000/svg" width="1600" height="1000" viewBox="0 0 1600 1000" role="img" aria-labelledby="title description">
  <title id="title">Muestra del tablero de Domino Iberia</title>
  <desc id="description">Demostracion visual de una mesa oficial en juego con marcador, jugadores, fichas y controles.</desc>
  <defs>
    <linearGradient id="bg" x1="0" y1="0" x2="1" y2="1"><stop stop-color="#09161d"/><stop offset="1" stop-color="#12382d"/></linearGradient>
    <filter id="shadow" x="-20%" y="-20%" width="140%" height="140%"><feDropShadow dx="0" dy="15" stdDeviation="16" flood-color="#020b08" flood-opacity=".55"/></filter>
  </defs>
  <rect width="1600" height="1000" fill="url(#bg)"/>
  <path d="M0 800C330 670 500 980 810 810C1050 680 1280 800 1600 650V1000H0Z" fill="#06100d" fill-opacity=".5"/>
  <g font-family="Arial, sans-serif">
    <text x="78" y="70" fill="#e7bd58" font-size="18" font-weight="700" letter-spacing="3">MUESTRA DE MESA OFICIAL</text>
    <text x="78" y="118" fill="#f1f7f3" font-size="38" font-weight="700">Dominó suizo · Torneo Iberia</text>
    <text x="78" y="151" fill="#acc1b5" font-size="20">Mesa K7M2P · En juego</text>
    <g transform="translate(1180 62)"><rect width="142" height="72" rx="8" fill="#10251f" stroke="#31483f" stroke-width="2"/><text x="71" y="30" text-anchor="middle" fill="#acc1b5" font-size="14" font-weight="700">PAREJA 1</text><text x="71" y="59" text-anchor="middle" fill="#e7bd58" font-size="30" font-weight="700">146</text></g>
    <g transform="translate(1342 62)"><rect width="142" height="72" rx="8" fill="#10251f" stroke="#31483f" stroke-width="2"/><text x="71" y="30" text-anchor="middle" fill="#acc1b5" font-size="14" font-weight="700">PAREJA 2</text><text x="71" y="59" text-anchor="middle" fill="#f1f7f3" font-size="30" font-weight="700">118</text></g>

    <g filter="url(#shadow)">
      <rect x="96" y="230" width="680" height="128" rx="9" fill="#10251f" stroke="#31483f" stroke-width="2"/>
      <text x="132" y="277" fill="#acc1b5" font-size="19">PAREJA 1 · TU PAREJA</text>
      <text x="132" y="335" fill="#e7bd58" font-size="56" font-weight="700">146</text><text x="255" y="335" fill="#acc1b5" font-size="25">/ 200</text>
      <rect x="824" y="230" width="680" height="128" rx="9" fill="#10251f" stroke="#31483f" stroke-width="2"/>
      <text x="860" y="277" fill="#acc1b5" font-size="19">PAREJA 2</text>
      <text x="860" y="335" fill="#eef4ef" font-size="56" font-weight="700">118</text><text x="983" y="335" fill="#acc1b5" font-size="25">/ 200</text>
    </g>

    <rect x="96" y="388" width="1408" height="58" rx="7" fill="#163024" stroke="#4d8062" stroke-width="2"/>
    <circle cx="128" cy="417" r="11" fill="#8dd9aa"/><text x="154" y="425" fill="#cce8d5" font-size="20" font-weight="700">Ubicación de la pareja verificada · Distancia mínima de 1 km cumplida</text>

    <g font-size="20">
      <rect x="96" y="477" width="300" height="78" rx="7" fill="#173d30" stroke="#e7bd58" stroke-width="2"/><text x="120" y="511" fill="#eef4ef" font-weight="700">María (tú)</text><text x="120" y="541" fill="#acc1b5">5 fichas</text>
      <rect x="430" y="477" width="300" height="78" rx="7" fill="#10251f" stroke="#31483f" stroke-width="2"/><text x="454" y="511" fill="#eef4ef" font-weight="700">Carlos</text><text x="454" y="541" fill="#acc1b5">4 fichas</text>
      <rect x="764" y="477" width="300" height="78" rx="7" fill="#10251f" stroke="#31483f" stroke-width="2"/><text x="788" y="511" fill="#eef4ef" font-weight="700">Ana</text><text x="788" y="541" fill="#acc1b5">6 fichas</text>
      <rect x="1098" y="477" width="406" height="78" rx="7" fill="#10251f" stroke="#31483f" stroke-width="2"/><text x="1122" y="511" fill="#eef4ef" font-weight="700">Jorge</text><text x="1122" y="541" fill="#acc1b5">5 fichas</text>
    </g>

    <rect x="96" y="584" width="1408" height="222" rx="10" fill="#123c2e" stroke="#4d8062" stroke-width="2"/>
    <text x="800" y="636" text-anchor="middle" fill="#cfe0d4" font-size="18" font-weight="700" letter-spacing="3">MESA DE JUEGO</text>
    <g transform="translate(520 666)" fill="#f7f0dc" stroke="#d6b86a" stroke-width="4">
      <g transform="rotate(-8 0 0)"><rect width="105" height="83" rx="7"/><path d="M52 0V83"/><circle cx="26" cy="28" r="8" fill="#153b30"/><circle cx="78" cy="28" r="8" fill="#153b30"/><circle cx="78" cy="55" r="8" fill="#153b30"/></g>
      <g transform="translate(99 0) rotate(5 0 0)"><rect width="105" height="83" rx="7"/><path d="M52 0V83"/><circle cx="26" cy="28" r="8" fill="#153b30"/><circle cx="26" cy="55" r="8" fill="#153b30"/><circle cx="78" cy="28" r="8" fill="#153b30"/><circle cx="78" cy="55" r="8" fill="#153b30"/></g>
      <g transform="translate(202 0) rotate(-4 0 0)"><rect width="105" height="83" rx="7"/><path d="M52 0V83"/><circle cx="26" cy="28" r="8" fill="#153b30"/><circle cx="26" cy="55" r="8" fill="#153b30"/><circle cx="78" cy="28" r="8" fill="#153b30"/><circle cx="78" cy="55" r="8" fill="#153b30"/></g>
      <g transform="translate(305 0) rotate(7 0 0)"><rect width="105" height="83" rx="7"/><path d="M52 0V83"/><circle cx="26" cy="28" r="8" fill="#153b30"/><circle cx="78" cy="28" r="8" fill="#153b30"/><circle cx="78" cy="55" r="8" fill="#153b30"/></g>
    </g>

    <text x="96" y="855" fill="#eef4ef" font-size="27" font-weight="700">Tus fichas</text><text x="250" y="855" fill="#acc1b5" font-size="19">Selecciona una ficha y elige el extremo</text>
    <g transform="translate(96 878)" fill="#f7f0dc" stroke="#d6b86a" stroke-width="3">
      <g><rect width="82" height="92" rx="7"/><path d="M0 46H82"/><circle cx="41" cy="23" r="7" fill="#153b30"/><circle cx="22" cy="69" r="7" fill="#153b30"/><circle cx="60" cy="69" r="7" fill="#153b30"/></g>
      <g transform="translate(99 0)"><rect width="82" height="92" rx="7"/><path d="M0 46H82"/><circle cx="22" cy="23" r="7" fill="#153b30"/><circle cx="60" cy="23" r="7" fill="#153b30"/><circle cx="22" cy="69" r="7" fill="#153b30"/><circle cx="60" cy="69" r="7" fill="#153b30"/></g>
      <g transform="translate(198 0)"><rect width="82" height="92" rx="7"/><path d="M0 46H82"/><circle cx="22" cy="23" r="7" fill="#153b30"/><circle cx="60" cy="23" r="7" fill="#153b30"/><circle cx="41" cy="69" r="7" fill="#153b30"/></g>
      <g transform="translate(297 0)"><rect width="82" height="92" rx="7"/><path d="M0 46H82"/><circle cx="41" cy="23" r="7" fill="#153b30"/><circle cx="22" cy="69" r="7" fill="#153b30"/><circle cx="41" cy="69" r="7" fill="#153b30"/><circle cx="60" cy="69" r="7" fill="#153b30"/></g>
    </g>
    <g font-size="19" font-weight="700"><rect x="1082" y="866" width="132" height="48" rx="6" fill="#d6e7dc"/><text x="1148" y="897" text-anchor="middle" fill="#14251b">Izquierda</text><rect x="1230" y="866" width="140" height="48" rx="6" fill="#e7bd58"/><text x="1300" y="897" text-anchor="middle" fill="#162019">Derecha</text><rect x="1386" y="866" width="118" height="48" rx="6" fill="none" stroke="#769081"/><text x="1445" y="897" text-anchor="middle" fill="#e5eee7">Pasar</text></g>
    <g>
      <rect width="1600" height="1000" fill="#09161d"/>
      <text x="78" y="70" fill="#e7bd58" font-size="18" font-weight="700" letter-spacing="3">MUESTRA DE MESA OFICIAL</text><text x="78" y="118" fill="#f1f7f3" font-size="38" font-weight="700">Dominó suizo · Torneo Iberia</text><text x="78" y="151" fill="#acc1b5" font-size="20">Mesa K7M2P · En juego</text>
      <g transform="translate(1180 62)"><rect width="142" height="72" rx="8" fill="#10251f" stroke="#31483f" stroke-width="2"/><text x="71" y="30" text-anchor="middle" fill="#acc1b5" font-size="14" font-weight="700">PAREJA 1</text><text x="71" y="59" text-anchor="middle" fill="#e7bd58" font-size="30" font-weight="700">146</text></g><g transform="translate(1342 62)"><rect width="142" height="72" rx="8" fill="#10251f" stroke="#31483f" stroke-width="2"/><text x="71" y="30" text-anchor="middle" fill="#acc1b5" font-size="14" font-weight="700">PAREJA 2</text><text x="71" y="59" text-anchor="middle" fill="#f1f7f3" font-size="30" font-weight="700">118</text></g>
      <ellipse cx="800" cy="545" rx="623" ry="325" fill="#51351f"/><ellipse cx="800" cy="531" rx="600" ry="308" fill="#10523e" stroke="#d6b86a" stroke-width="8"/><ellipse cx="800" cy="531" rx="561" ry="277" fill="none" stroke="#76ad8e" stroke-opacity=".5" stroke-width="2"/>
      <g transform="translate(642 205)"><rect width="316" height="70" rx="9" fill="#10251f" stroke="#31483f" stroke-width="2"/><circle cx="35" cy="35" r="18" fill="#e7bd58"/><text x="35" y="42" text-anchor="middle" fill="#10251f" font-size="18" font-weight="700">C</text><text x="66" y="31" fill="#eef4ef" font-size="21" font-weight="700">Carlos</text><text x="66" y="55" fill="#acc1b5" font-size="16">Frente a ti · 4 fichas</text></g>
      <g transform="translate(162 496)"><rect width="248" height="72" rx="9" fill="#10251f" stroke="#31483f" stroke-width="2"/><circle cx="35" cy="36" r="18" fill="#79b699"/><text x="35" y="43" text-anchor="middle" fill="#10251f" font-size="18" font-weight="700">A</text><text x="65" y="32" fill="#eef4ef" font-size="21" font-weight="700">Ana</text><text x="65" y="56" fill="#acc1b5" font-size="16">6 fichas</text></g>
      <g transform="translate(1190 496)"><rect width="248" height="72" rx="9" fill="#173d30" stroke="#e7bd58" stroke-width="2"/><circle cx="35" cy="36" r="18" fill="#e7bd58"/><text x="35" y="43" text-anchor="middle" fill="#10251f" font-size="18" font-weight="700">M</text><text x="65" y="32" fill="#eef4ef" font-size="21" font-weight="700">María (tú)</text><text x="65" y="56" fill="#cfe0d4" font-size="16">5 fichas · Tu turno</text></g>
      <g transform="translate(642 796)"><rect width="316" height="70" rx="9" fill="#10251f" stroke="#31483f" stroke-width="2"/><circle cx="35" cy="35" r="18" fill="#79b699"/><text x="35" y="42" text-anchor="middle" fill="#10251f" font-size="18" font-weight="700">J</text><text x="66" y="31" fill="#eef4ef" font-size="21" font-weight="700">Jorge</text><text x="66" y="55" fill="#acc1b5" font-size="16">Tu compañero · 5 fichas</text></g>
      <g transform="translate(505 440) rotate(-7)"><rect width="116" height="72" rx="7" fill="#f7efd8" stroke="#c69c44" stroke-width="4"/><path d="M58 0V72" stroke="#c69c44" stroke-width="3"/><circle cx="28" cy="25" r="7" fill="#112f25"/><circle cx="87" cy="23" r="7" fill="#112f25"/><circle cx="87" cy="49" r="7" fill="#112f25"/></g><g transform="translate(612 447) rotate(4)"><rect width="116" height="72" rx="7" fill="#f7efd8" stroke="#c69c44" stroke-width="4"/><path d="M58 0V72" stroke="#c69c44" stroke-width="3"/><circle cx="28" cy="24" r="7" fill="#112f25"/><circle cx="28" cy="48" r="7" fill="#112f25"/><circle cx="87" cy="23" r="7" fill="#112f25"/><circle cx="87" cy="49" r="7" fill="#112f25"/></g><g transform="translate(720 450) rotate(-3)"><rect width="116" height="72" rx="7" fill="#f7efd8" stroke="#c69c44" stroke-width="4"/><path d="M58 0V72" stroke="#c69c44" stroke-width="3"/><circle cx="28" cy="24" r="7" fill="#112f25"/><circle cx="28" cy="48" r="7" fill="#112f25"/><circle cx="87" cy="23" r="7" fill="#112f25"/><circle cx="87" cy="49" r="7" fill="#112f25"/></g><g transform="translate(828 455) rotate(5)"><rect width="116" height="72" rx="7" fill="#f7efd8" stroke="#c69c44" stroke-width="4"/><path d="M58 0V72" stroke="#c69c44" stroke-width="3"/><circle cx="28" cy="23" r="7" fill="#112f25"/><circle cx="28" cy="49" r="7" fill="#112f25"/><circle cx="87" cy="23" r="7" fill="#112f25"/><circle cx="87" cy="36" r="7" fill="#112f25"/><circle cx="87" cy="49" r="7" fill="#112f25"/></g><g transform="translate(937 465) rotate(-6)"><rect width="116" height="72" rx="7" fill="#f7efd8" stroke="#c69c44" stroke-width="4"/><path d="M58 0V72" stroke="#c69c44" stroke-width="3"/><circle cx="28" cy="23" r="7" fill="#112f25"/><circle cx="28" cy="49" r="7" fill="#112f25"/><circle cx="87" cy="23" r="7" fill="#112f25"/><circle cx="87" cy="49" r="7" fill="#112f25"/></g>
      <g transform="translate(490 641)"><rect width="620" height="47" rx="7" fill="#163024" stroke="#4d8062" stroke-width="2"/><circle cx="25" cy="23" r="8" fill="#8dd9aa"/><text x="45" y="30" fill="#cce8d5" font-size="16" font-weight="700">Ubicación de la pareja verificada · Distancia de 1 km cumplida</text></g>
      <text x="90" y="916" fill="#eef4ef" font-size="20" font-weight="700">Tus fichas</text><g transform="translate(220 874)"><rect width="95" height="70" rx="7" fill="#f7efd8" stroke="#c69c44" stroke-width="4"/><path d="M48 0V70" stroke="#c69c44" stroke-width="3"/><circle cx="24" cy="24" r="7" fill="#112f25"/><circle cx="72" cy="24" r="7" fill="#112f25"/><circle cx="72" cy="47" r="7" fill="#112f25"/></g><g transform="translate(330 874)"><rect width="95" height="70" rx="7" fill="#f7efd8" stroke="#c69c44" stroke-width="4"/><path d="M48 0V70" stroke="#c69c44" stroke-width="3"/><circle cx="24" cy="24" r="7" fill="#112f25"/><circle cx="24" cy="47" r="7" fill="#112f25"/><circle cx="72" cy="24" r="7" fill="#112f25"/><circle cx="72" cy="47" r="7" fill="#112f25"/></g>
      <g transform="translate(1082 885)" font-size="18" font-weight="700"><rect width="126" height="47" rx="6" fill="#d6e7dc"/><text x="63" y="30" text-anchor="middle" fill="#14251b">Izquierda</text><rect x="142" width="126" height="47" rx="6" fill="#e7bd58"/><text x="205" y="30" text-anchor="middle" fill="#162019">Derecha</text><rect x="284" width="100" height="47" rx="6" fill="none" stroke="#769081"/><text x="334" y="30" text-anchor="middle" fill="#e5eee7">Pasar</text></g>
    </g>
  </g>
</svg>